<?xml version="1.0" encoding="utf-8"?>
<!DOCTYPE svg PUBLIC "-//W3C//DTD SVG 20010904//EN" "http://www.w3.org/TR/2001/REC-SVG-20010904/DTD/svg10.dtd">
<svg version="1.0" xmlns="http://www.w3.org/2000/svg" width="612px" height="612px" viewBox="0 0 612 612" preserveAspectRatio="xMidYMid meet">
 <g fill="#e7ecec">
  <path d="M106.35 401.65 c-0.20 -0.15 -0.35 -55.75 -0.35 -123.50 l0 -123.15 200 0 200 0 -0.10 123.40 -0.15 123.35 -199.55 0.15 c-109.75 0.05 -199.70 -0.05 -199.85 -0.25z m60.55 -19.50 l-0.15 -2.40 -13.50 0 -13.50 0 -0.15 2.40 -0.15 2.35 13.80 0 13.80 0 -0.15 -2.35z m97.80 1.25 c0.50 -1.95 0.35 -3.30 -0.50 -3.60 -1 -0.40 -88.90 -0.40 -89.90 0 -0.80 0.30 -1.15 3.65 -0.45 4.35 0.15 0.20 20.60 0.35 45.45 0.35 l45.10 0 0.30 -1.10z m22.80 -1.40 l0 -2.50 -7.20 0 c-3.95 0 -7.55 0.15 -8 0.30 -0.55 0.20 -0.80 0.95 -0.80 2.50 l0 2.20 8 0 8 0 0 -2.50z m151.25 -2.75 l0 -5 -56 -0.15 c-52.20 -0.10 -56.05 -0.05 -56.60 0.75 -0.95 1.30 -0.85 7.90 0.15 8.85 0.70 0.75 6.35 0.80 56.60 0.70 l55.85 -0.15 0 -5z m-151.45 -10.95 c0.15 -0.65 0.20 -1.75 0.10 -2.35 l-0.15 -1.20 -7.75 0 -7.75 0 -0.15 1.65 c-0.30 3.10 -0.35 3.10 7.85 3.10 7.55 0 7.55 0 7.85 -1.20z m-120.70 -0.15 c0.10 -0.50 0.10 -1.40 0 -2 -0.20 -1.10 -0.25 -1.10 -13.15 -1.25 -7.15 -0.10 -13.20 -0.05 -13.45 0 -0.70 0.25 -0.60 2.80 0.10 3.50 0.45 0.45 4.15 0.60 13.45 0.60 11.85 0 12.90 -0.05 13.05 -0.85z m97.80 -1.25 l0.15 -1.90 -45.25 0 -45.30 0 0 1.65 c0 0.95 0.15 1.85 0.35 2 0.15 0.20 20.50 0.30 45.10 0.25 l44.80 -0.15 0.15 -1.85z m211.50 -5.50 l-0.15 -5.15 -74.45 -0.15 c-41 -0.05 -74.70 0.10 -74.90 0.30 -0.35 0.35 -0.65 6.55 -0.45 9.50 0.05 0.45 15.40 0.60 75.05 0.60 l75.05 0 -0.15 -5.10z m-188.40 -9.40 l0 -2.55 -7.85 0.15 -7.90 0.15 -0.15 1.65 c-0.30 3.15 -0.40 3.10 8.15 3.10 l7.75 0 0 -2.50z m-121 -0.25 l0 -2.25 -13.35 0.10 -13.40 0.15 -0.15 1.40 c-0.35 2.95 -0.80 2.85 13.65 2.85 l13.25 0 0 -2.25z m97.90 0.15 l-0.15 -2.15 -45 0 -45 0 -0.15 1.40 c-0.35 3.05 -3.70 2.85 45.40 2.85 l45.05 0 -0.15 -2.10z m138.20 -7.75 c0.15 -2.45 0.15 -4.80 0 -5.30 -0.20 -0.80 -2.35 -0.85 -38.55 -0.75 l-38.30 0.15 -0.15 4.45 c-0.10 2.45 -0.05 4.75 0.10 5.15 0.20 0.55 7.15 0.65 38.45 0.65 l38.20 0 0.25 -4.35z m-235.95 -6.50 c0.50 -2.70 0.25 -2.80 -9.70 -3 -5.05 -0.15 -11.05 -0.10 -13.30 0.10 -4.10 0.35 -4.15 0.35 -4.15 1.70 0 2.50 0.25 2.55 14.05 2.55 l12.85 0 0.25 -1.35z m97.75 -0.70 l0.15 -1.85 -9.65 -0.30 c-5.30 -0.20 -25.60 -0.30 -45.15 -0.20 l-35.50 0.15 -0.15 1.40 c-0.35 3.05 -3.10 2.85 45.60 2.75 l44.55 -0.15 0.15 -1.80z m23 -0.05 l-0.15 -2.15 -7.85 -0.15 -7.90 -0.15 0 2.30 0 2.25 8.05 0 8 0 -0.15 -2.10z m-120.60 -14.10 c0.15 -0.70 0.20 -1.65 0.10 -2.15 -0.15 -0.85 -1.05 -0.90 -13.80 -1.05 l-13.60 -0.10 0 2.25 0 2.25 13.50 0 13.50 0 0.30 -1.20z m97.70 -1.05 l0 -2.25 -45.35 0.10 -45.40 0.15 -0.15 2.15 -0.15 2.10 45.50 0 45.55 0 0 -2.25z m22.75 0 l0 -2 -7.85 -0.15 -7.90 -0.15 0 2.30 0 2.30 7.90 -0.15 7.85 -0.15 0 -2z m145.90 -9.55 c2.15 -0.20 3.85 -0.55 3.85 -0.75 0 -0.25 -24.85 -0.45 -55.25 -0.45 -33.15 0 -55.25 0.20 -55.25 0.45 0 0.25 0.30 0.60 0.65 0.70 0.90 0.40 101.60 0.40 106 0.05z m41.85 -7.70 c0 -0.35 -25.10 -0.50 -74.30 -0.50 -49.35 0 -74.15 0.15 -73.95 0.50 0.45 0.70 148.25 0.70 148.25 0z m-0.10 -7.25 c0.15 -0.15 0.15 -0.35 0.05 -0.50 -0.25 -0.20 -37.95 -0.30 -121.30 -0.25 -16.75 0 -26.65 0.20 -26.65 0.50 0 0.25 2.10 0.55 4.65 0.60 7.90 0.25 143 -0.10 143.25 -0.35z m-69.15 -8.70 c11.25 -2.30 17.20 -5.10 25.20 -11.65 3.10 -2.55 9.45 -9.65 9.50 -10.60 0.05 -0.25 0.35 -0.85 0.75 -1.25 0.90 -1.05 4.65 -9.95 5.80 -13.80 3.30 -10.90 1.25 -26.40 -4.85 -36.70 -8.25 -13.95 -22.25 -23.45 -37.65 -25.50 -4.80 -0.65 -18.60 0.20 -19.15 1.20 -0.20 0.40 -0.80 0.75 -1.30 0.75 -0.50 0 -3.45 1.35 -6.60 3 -3.15 1.65 -6.30 3.25 -7.05 3.60 -0.80 0.35 -1.40 0.90 -1.40 1.25 0 0.35 -0.35 0.65 -0.75 0.65 -1.10 0 -8.95 8.10 -11.10 11.45 -4.20 6.50 -7.70 16.05 -8.55 23.20 -0.50 4.15 0.05 10.75 1.40 16.85 1.15 5.20 4.60 12.30 8.60 17.75 5.50 7.50 16.10 15.05 25.10 17.80 10 3.10 14.70 3.50 22.05 2z m-211.25 -20.30 l0 -20.75 -13.20 0 -13.15 0 -0.35 2.65 c-0.40 3.40 -0.40 32.80 0 36.25 l0.35 2.60 13.15 0 13.20 0 0 -20.75z m32.50 -14.75 l0 -35.50 -13.35 0.10 -13.40 0.15 -0.15 35.40 -0.10 35.35 13.50 0 13.50 0 0 -35.50z m32.40 -14.60 l-0.15 -50.15 -13.35 -0.15 -13.40 -0.10 0 50.25 0 50.25 13.50 0 13.50 0 -0.10 -50.10z"/>
  <path d="M390.35 271.45 c-5.15 -1.20 -12.20 -5.35 -16.80 -9.85 -6.80 -6.75 -9.95 -18.70 -7.85 -29.75 0.70 -3.65 4.40 -12.05 6.05 -13.65 0.40 -0.45 0.75 -1 0.75 -1.25 0 -0.25 0.35 -0.45 0.75 -0.45 0.40 0 0.75 -0.20 0.75 -0.40 0 -0.75 2.65 -3.60 3.35 -3.60 0.40 0 1.35 -0.65 2.15 -1.45 0.80 -0.75 2.30 -1.80 3.35 -2.25 1.05 -0.45 2.30 -1.05 2.80 -1.35 2.95 -1.60 13.40 -2.40 19.70 -1.45 10.70 1.55 21.20 10.75 24.85 21.65 4.20 12.50 0.50 27.65 -8.80 36.15 -3.25 2.95 -9.90 6.35 -14.40 7.45 -3.55 0.80 -13.50 0.95 -16.65 0.20z"/>
 </g>
 <g fill="#ced1d6">
  <path d="M106 400.25 c0 -1.95 1.20 -2.50 1.65 -0.75 0.15 0.55 0.60 1 1.05 1 0.45 0 0.80 0.35 0.80 0.75 0 0.50 -0.55 0.75 -1.75 0.75 -1.65 0 -1.75 -0.10 -1.75 -1.75z"/>
  <path d="M502.50 401.25 c0 -0.40 0.35 -0.75 0.80 -0.75 0.45 0 0.90 -0.45 1.05 -1 0.45 -1.75 1.65 -1.20 1.65 0.75 0 1.65 -0.10 1.75 -1.75 1.75 -1.20 0 -1.75 -0.25 -1.75 -0.75z"/>
  <path d="M287.35 386.15 c-1.25 -0.30 -0.85 -1.85 0.55 -2.05 0.90 -0.15 1.10 0.05 1.10 1.10 0 1.30 -0.05 1.35 -1.65 0.95z"/>
  <path d="M137.80 385.60 c-0.40 -0.70 0.25 -2.60 0.95 -2.60 0.65 0 1.25 1.05 1.25 2.30 0 0.75 -1.75 1 -2.20 0.30z"/>
  <path d="M166.50 384.75 c0 -0.90 0.25 -1.25 1 -1.25 0.75 0 1 0.35 1 1.25 0 0.90 -0.25 1.25 -1 1.25 -0.75 0 -1 -0.35 -1 -1.25z"/>
  <path d="M172.10 385.55 c-0.85 -0.50 -0.25 -3.05 0.70 -3.05 0.45 0 0.70 0.60 0.70 1.75 0 1.80 -0.25 2.05 -1.40 1.30z"/>
  <path d="M264.50 383 c0 -2.65 -0.10 -3 -1 -3 -0.65 0 -1 -0.35 -1 -1 0 -1.05 1.50 -1.35 3.20 -0.70 1.45 0.55 0.95 7.70 -0.50 7.70 -0.50 0 -0.70 -0.80 -0.70 -3z"/>
  <path d="M269.85 384.50 c-0.35 -1.40 0.15 -3 0.95 -3 0.50 0 0.70 0.65 0.70 2 0 2.15 -1.15 2.85 -1.65 1z"/>
  <path d="M166.50 380.75 c0 -0.60 -0.70 -0.75 -3.25 -0.75 -2.95 0 -3.25 -0.10 -3.25 -1 0 -1 0.25 -1.05 4.15 -0.90 l4.10 0.15 0.15 1.65 c0.15 1.35 0 1.60 -0.85 1.60 -0.60 0 -1.05 -0.35 -1.05 -0.75z"/>
  <path d="M137.85 380.05 c-0.40 -1.50 0.60 -2.05 3.75 -2.05 2.55 0 2.90 0.10 2.90 1 0 0.85 -0.35 1 -2.50 1 -1.35 0 -2.50 0.25 -2.50 0.50 0 0.90 -1.40 0.50 -1.65 -0.45z"/>
  <path d="M171.85 379.90 c-0.35 -1.35 -0.40 -1.30 1.55 -1.70 1.40 -0.30 1.60 -0.20 1.60 0.75 0 0.60 -0.30 1.05 -0.75 1.05 -0.40 0 -0.75 0.25 -0.75 0.50 0 1 -1.40 0.50 -1.65 -0.60z"/>
  <path d="M269.85 379.90 c-0.35 -1.35 -0.40 -1.30 1.55 -1.70 1.40 -0.30 1.60 -0.20 1.60 0.75 0 0.60 -0.30 1.05 -0.75 1.05 -0.40 0 -0.75 0.25 -0.75 0.50 0 1 -1.40 0.50 -1.65 -0.60z"/>
  <path d="M287 379.55 c0 -1 0.30 -1.50 1 -1.70 0.85 -0.20 1 0 1 1.45 0 1.35 -0.20 1.70 -1 1.70 -0.75 0 -1 -0.35 -1 -1.45z"/>
  <path d="M153.30 370.60 c-9.30 -0.05 -14.20 -0.30 -14.65 -0.65 -0.85 -0.75 -0.90 -6.45 0 -6.50 0.30 0 7 0 14.85 0 l14.25 0 0.45 1.80 c0.40 1.80 0.05 5.10 -0.60 5.35 -0.20 0.10 -6.65 0.10 -14.30 0z"/>
  <path d="M270.10 370.40 c-0.80 -1.05 -0.15 -3.90 0.95 -3.90 0.70 0 0.95 0.35 0.95 1.25 l0 1.25 7.55 0 7.60 0 -0.30 -3 c-0.30 -2.70 -0.25 -3 0.60 -3 1.40 0 1.90 1 1.80 3.50 -0.15 4.75 0.40 4.50 -9.70 4.50 -6.55 0 -9.05 -0.15 -9.45 -0.60z"/>
  <path d="M172.85 370.15 c-0.65 -0.60 -0.40 -6.65 0.30 -6.65 0.30 0 20.60 0 45.10 -0.05 24.50 0 45.25 0 46.15 0 l1.65 0.05 -0.15 3.40 -0.15 3.35 -46.30 0.15 c-25.45 0.05 -46.45 -0.05 -46.60 -0.25z"/>
  <path d="M445.90 368.10 c-1.70 -0.35 -1 -1.60 0.85 -1.60 1.15 0 1.75 0.25 1.75 0.70 0 0.75 -1.25 1.20 -2.60 0.90z"/>
  <path d="M324.20 367.10 c-1.20 -1.85 -0.70 -8.60 0.60 -8.60 0.55 0 0.70 1 0.70 4.75 0 4.75 -0.25 5.55 -1.30 3.85z"/>
  <path d="M270.10 364.15 c0.10 -0.50 0.65 -0.95 1.30 -1.05 0.85 -0.15 1.10 0.10 1.10 0.85 0 0.80 -0.30 1.05 -1.30 1.05 -0.95 0 -1.25 -0.25 -1.10 -0.85z"/>
  <path d="M270.35 355.65 c-0.20 -0.15 -0.35 -0.60 -0.35 -1 0 -0.50 1.75 -0.65 8.55 -0.65 l8.60 0 -0.30 -2.95 c-0.30 -2.85 -0.30 -2.95 0.90 -3.15 0.80 -0.20 1.25 -0.05 1.30 0.40 0.25 2.45 0.30 6.10 0.10 6.85 -0.20 0.75 -1.05 0.85 -9.35 0.85 -5 0 -9.30 -0.15 -9.45 -0.35z"/>
  <path d="M475 355.30 c0 -0.95 1.85 -1.35 2.20 -0.45 0.45 1.10 0.40 1.15 -0.95 1.15 -0.75 0 -1.25 -0.30 -1.25 -0.70z"/>
  <path d="M138.20 354.85 c-0.15 -0.40 -0.20 -2.05 -0.10 -3.65 l0.15 -2.95 14.90 -0.15 14.85 -0.10 0.05 1.35 c0.05 0.80 0.10 2.40 0.15 3.65 l0.05 2.25 -14.90 0.15 c-12.25 0.10 -14.90 0 -15.15 -0.55z"/>
  <path d="M172.70 355 c-0.25 -0.25 -0.35 -1.85 -0.20 -3.60 l0.25 -3.15 46.50 0 46.50 0 0.15 3.65 0.15 3.60 -46.45 0 c-28.70 0 -46.60 -0.20 -46.90 -0.50z"/>
  <path d="M323.90 349.65 c-1 -0.25 -1.15 -0.70 -0.40 -1.45 0.25 -0.25 0.55 -2.95 0.60 -5.95 l0.15 -5.50 39.80 -0.15 39.85 -0.10 0.30 1.10 c0.75 2.80 0.15 6.90 -1 6.90 -0.50 0 -0.70 -0.80 -0.70 -3 l0 -3 -38.25 0 -38.25 0 0 4.75 c0 2.85 0.20 4.75 0.50 4.75 0.30 0 0.50 0.45 0.50 1 0 1 -1 1.20 -3.10 0.65z"/>
  <path d="M401.50 349.20 c0 -0.85 1.15 -2.20 1.90 -2.20 0.55 0 1.15 2 0.80 2.60 -0.50 0.75 -2.70 0.45 -2.70 -0.40z"/>
  <path d="M270.65 340.65 c-0.35 -0.10 -0.65 -0.55 -0.65 -0.95 0 -0.50 0.60 -0.70 2 -0.70 1.35 0 2 0.20 2 0.70 0 0.95 -2 1.50 -3.35 0.95z"/>
  <path d="M138.60 339.90 c-0.35 -0.35 -0.60 -1.90 -0.60 -3.50 0 -2.60 0.10 -2.90 1.15 -3.15 0.60 -0.15 7.30 -0.20 14.85 -0.15 l13.75 0.15 0.45 1.30 c0.25 0.70 0.30 2.35 0.10 3.60 l-0.35 2.35 -14.40 0 c-10.50 0 -14.50 -0.15 -14.95 -0.60z"/>
  <path d="M173.10 339.85 c-0.65 -0.75 -0.95 -5.40 -0.40 -6.30 0.30 -0.45 10 -0.55 44.20 -0.50 24.15 0.05 45.05 0.20 46.50 0.35 l2.65 0.20 -0.15 3.30 -0.15 3.35 -46.05 0.15 c-37.05 0.10 -46.20 0 -46.60 -0.55z"/>
  <path d="M287 336.75 c0 -2.95 0.15 -3.75 0.70 -3.75 1.10 0 1.50 0.95 1.55 3.75 0.10 3.15 -0.15 3.75 -1.30 3.75 -0.85 0 -0.95 -0.40 -0.95 -3.75z"/>
  <path d="M270 334 c0 -0.65 0.35 -1 1 -1 0.65 0 1 0.35 1 1 0 0.65 -0.35 1 -1 1 -0.65 0 -1 -0.35 -1 -1z"/>
  <path d="M138.30 325.60 c-0.10 -0.20 -0.30 -1.95 -0.35 -3.85 -0.15 -3.45 -0.10 -3.50 1.20 -3.65 l1.35 -0.15 -0.35 3 c-0.25 2.65 -0.20 3.05 0.55 3.05 1.20 0 0.95 1.35 -0.30 1.70 -1.50 0.40 -1.80 0.35 -2.10 -0.10z"/>
  <path d="M142.90 325.60 c-1.70 -0.35 -1 -1.60 0.85 -1.60 1.15 0 1.75 0.25 1.75 0.70 0 0.75 -1.25 1.20 -2.60 0.90z"/>
  <path d="M166.40 325.65 c-0.95 -0.25 -1.25 -1.65 -0.40 -1.65 0.30 0 0.50 -1.35 0.50 -3.05 0 -2.60 0.10 -3 0.90 -2.85 0.60 0.10 0.90 0.75 1 2.40 0.20 2.50 -0.25 5.55 -0.80 5.45 -0.20 -0.05 -0.75 -0.15 -1.20 -0.30z"/>
  <path d="M172.30 325.60 c-0.15 -0.15 -0.30 -0.70 -0.30 -1.20 0 -1.20 2.15 -1.05 2.40 0.15 0.15 0.80 -1.55 1.65 -2.10 1.05z"/>
  <path d="M287.50 325.65 c-0.60 -0.15 -0.75 -1 -0.75 -3.95 -0.05 -3.50 0.05 -3.75 1 -3.60 0.85 0.15 1 0.55 1.15 3.30 0.15 3.35 -0.20 4.50 -1.40 4.25z"/>
  <path d="M264.50 323.75 c0 -2 1.20 -2.45 1.70 -0.60 0.50 1.85 0.35 2.35 -0.70 2.35 -0.80 0 -1 -0.35 -1 -1.75z"/>
  <path d="M269.90 325.20 c-0.15 -0.15 -0.20 -0.70 -0.05 -1.25 0.40 -1.40 1.65 -1.20 1.65 0.30 0 1.15 -0.90 1.70 -1.60 0.95z"/>
  <path d="M172.10 319.90 c0.10 -1.25 0.40 -1.70 1.30 -1.80 1.15 -0.20 1.30 0.30 0.80 2.30 -0.20 0.65 -0.70 1.10 -1.30 1.10 -0.80 0 -0.95 -0.30 -0.80 -1.60z"/>
  <path d="M264 319.25 c0 -0.90 0.25 -1.25 1 -1.25 0.75 0 1 0.35 1 1.25 0 0.90 -0.25 1.25 -1 1.25 -0.75 0 -1 -0.35 -1 -1.25z"/>
  <path d="M269.85 319.55 c-0.30 -1.25 0 -1.55 1.50 -1.55 1.35 0 1.65 1.70 0.35 2.20 -1.25 0.50 -1.55 0.35 -1.85 -0.65z"/>
  <path d="M325.30 313.35 c-0.60 -0.45 -0.85 -1.15 -0.70 -2.10 l0.15 -1.50 56.90 -0.15 c62.25 -0.10 58 -0.30 57 2.75 l-0.50 1.40 -55.95 0.15 c-45.80 0.10 -56.15 0 -56.90 -0.55z"/>
  <path d="M378.55 306.60 c-37.95 -0.05 -52.90 -0.25 -53.40 -0.65 -0.80 -0.70 -0.85 -3.30 0 -3.50 0.30 -0.10 34.60 -0.10 76.10 0.05 l75.50 0.25 0.15 1.65 c0.10 1 -0.10 1.70 -0.50 1.85 -1 0.35 -40.10 0.50 -97.85 0.35z"/>
  <path d="M328 299.10 c-1.20 -0.10 -2.50 -0.40 -2.85 -0.70 -0.95 -0.75 -0.80 -2.75 0.20 -3.10 1.05 -0.40 150.55 -0.40 151.20 0 0.65 0.35 0.55 3.05 -0.10 3.45 -0.50 0.35 -144.10 0.65 -148.45 0.35z"/>
  <path d="M230.80 290.20 c-0.45 -1.60 0.15 -3.70 1 -3.70 0.40 0 0.70 0.45 0.70 0.95 0 0.55 0.25 1.15 0.50 1.30 0.85 0.55 0.55 1.50 -0.70 2.05 -1.10 0.50 -1.25 0.45 -1.50 -0.60z"/>
  <path d="M256.90 290.65 c-1.55 -0.40 -1.05 -1.65 0.60 -1.65 l1.50 0 0 -49.95 0 -49.95 -2 -0.35 c-2.30 -0.40 -2.70 -1.55 -0.60 -1.90 2.70 -0.45 4 -0.35 4.30 0.45 0.40 1.05 0.40 102.60 0.05 103.25 -0.30 0.45 -2.30 0.50 -3.85 0.10z"/>
  <path d="M390.45 290.25 c-6.45 -1.30 -13.15 -3.70 -17.45 -6.25 -15.10 -9 -23.75 -22 -25.75 -38.60 -0.35 -2.75 -0.30 -2.90 0.70 -2.90 0.85 0 1.05 0.30 1.05 1.65 0 4.60 4.35 16.45 8 21.85 1.10 1.60 2 3.20 2 3.45 0 0.30 0.20 0.55 0.45 0.55 0.25 0 2.25 1.75 4.45 3.95 6.55 6.40 13 10.20 21.90 12.90 4.10 1.30 5.10 1.40 12.70 1.35 9.40 -0.05 13.05 -0.75 19.85 -4 17.55 -8.30 28.65 -24.40 29.95 -43.30 0.35 -5.05 -0.45 -10.90 -2.35 -16.85 -3.05 -9.55 -11 -20.15 -19.45 -25.80 -2.05 -1.35 -3.90 -2.70 -4.05 -2.90 -0.15 -0.20 -1.95 -1.10 -4 -1.90 -7.40 -3.05 -13.30 -4.45 -18.80 -4.45 -2.75 0 -3.15 -0.10 -3.15 -0.90 0 -2.75 16.80 0 24.75 4.05 6.80 3.45 12.40 7.85 17.05 13.40 6.90 8.30 10.20 16.20 11.70 28.20 0.65 4.85 -0.15 14.55 -1.50 19 -1.15 3.85 -4.90 12.75 -5.80 13.80 -0.40 0.40 -0.70 1 -0.75 1.25 -0.05 0.95 -6.40 8.05 -9.50 10.60 -4.60 3.80 -7.10 5.45 -10.90 7.15 -10.15 4.65 -22.15 6.50 -31.10 4.70z"/>
  <path d="M198.20 289.70 c0.15 -0.45 0.30 -9.20 0.30 -19.50 0 -18.35 0 -18.70 1 -18.70 1 0 1 0.35 1 18.40 0 10.10 -0.15 18.85 -0.30 19.50 -0.20 0.65 -0.70 1.10 -1.30 1.10 -0.70 0 -0.90 -0.25 -0.70 -0.80z"/>
  <path d="M166.30 287.40 c-0.40 -1.50 -0.40 -36.80 0 -38.25 0.20 -0.65 0.65 -1.15 1 -1.15 0.60 0 0.70 3.35 0.70 20.25 0 16.90 -0.10 20.25 -0.70 20.25 -0.35 0 -0.80 -0.50 -1 -1.10z"/>
  <path d="M391.50 272 c-7.45 -1.30 -18.50 -8.10 -18.50 -11.35 0 -0.80 -0.30 -1.15 -1 -1.15 -0.55 0 -1 -0.30 -1 -0.70 0 -0.40 -0.30 -0.80 -0.65 -0.95 -2.60 -1 -6.90 -17.35 -4.60 -17.35 0.40 0 0.75 0.10 0.75 0.20 0 2.10 2.05 9.05 3.65 12.30 3.25 6.70 9.80 12.40 18.15 15.75 4.50 1.85 11.70 2.25 16.95 1.05 4.70 -1.10 11.35 -4.50 14.65 -7.50 4.75 -4.35 8.80 -11.85 9.85 -18.15 0.70 -4.20 0.85 -4.65 1.60 -4.65 0.70 0 0.75 0.60 0.50 4.45 -0.35 4.85 -2.20 9.70 -5.55 14.75 -4.25 6.35 -12.25 11.65 -19.65 13.10 -3.95 0.75 -11.40 0.85 -15.15 0.20z"/>
  <path d="M198.50 243.75 c0 -2.90 0.10 -3.25 1 -3.25 0.90 0 1 0.35 1 3.25 0 2.90 -0.10 3.25 -1 3.25 -0.90 0 -1 -0.35 -1 -3.25z"/>
  <path d="M346.80 240.40 c-0.70 -2.70 -0.10 -6.40 1 -6.40 0.55 0 0.70 0.90 0.70 3.75 0 2.85 -0.15 3.75 -0.70 3.75 -0.35 0 -0.80 -0.50 -1 -1.10z"/>
  <path d="M365 236 c0 -2.30 1.40 -8.70 2.40 -10.85 0.95 -2.05 3.10 -5.75 3.60 -6.15 0.20 -0.15 0.65 -0.80 1 -1.45 1.05 -2 3.10 -4.05 4.10 -4.05 0.50 0 0.90 -0.35 0.90 -0.75 0 -0.40 0.45 -0.95 0.95 -1.25 0.95 -0.50 4.05 -0.70 4.05 -0.30 0 0.60 -2.45 2.80 -3.10 2.80 -0.75 0 -3.40 2.80 -3.40 3.60 0 0.20 -0.35 0.40 -0.75 0.40 -0.40 0 -0.75 0.20 -0.75 0.45 0 0.25 -0.35 0.80 -0.75 1.25 -1.65 1.60 -5.35 10 -6.05 13.65 -0.40 2.05 -0.70 3.85 -0.70 3.95 0 0.10 -0.35 0.20 -0.75 0.20 -0.50 0 -0.75 -0.50 -0.75 -1.50z"/>
  <path d="M430.30 236.40 c-0.15 -0.65 -0.30 -1.65 -0.30 -2.25 0 -2.05 -2.55 -8.85 -4.35 -11.65 -4.80 -7.40 -13.05 -13.35 -20.55 -14.80 -2.05 -0.40 -3.80 -0.70 -3.90 -0.70 -0.10 0 -0.20 -0.35 -0.20 -0.80 0 -1.80 10.45 0.30 13.95 2.80 0.80 0.55 1.60 1 1.80 1 0.55 0 3.95 2.70 6.10 4.90 5 5 8.50 12.40 9 19 0.25 3 0.15 3.60 -0.45 3.60 -0.45 0 -0.90 -0.50 -1.10 -1.10z"/>
  <path d="M347 232.55 c0 -0.50 0.55 -3.05 1.20 -5.70 2.10 -8.20 6.45 -17 10.80 -21.80 1.10 -1.25 2 -2.40 2 -2.65 0 -0.25 0.20 -0.35 0.45 -0.20 0.25 0.15 0.70 -0.05 1.05 -0.45 0.35 -0.40 0.45 -0.75 0.20 -0.75 -0.65 0 3.50 -2.95 4.20 -3 0.35 0 0.50 -0.25 0.35 -0.50 -0.15 -0.30 0.30 -0.75 1.10 -1.05 0.75 -0.30 1.75 -0.80 2.15 -1.15 0.40 -0.35 1.15 -0.80 1.65 -0.95 0.65 -0.25 0.85 -0.05 0.85 0.90 0 1.10 -0.20 1.25 -1.75 1.25 -1.55 0 -1.75 0.15 -1.75 1.25 0 1.05 -0.25 1.25 -1.50 1.25 -1.10 0 -1.50 0.25 -1.50 0.90 0 1.10 -1.50 2.60 -2.65 2.60 -0.45 0 -0.85 0.50 -0.95 1.15 -0.10 0.60 -0.65 1.30 -1.25 1.60 -0.65 0.25 -1.15 0.75 -1.15 1.10 0 0.35 -0.20 0.65 -0.50 0.65 -0.25 0 -0.50 0.30 -0.50 0.65 0 0.35 -0.50 1.20 -1.10 1.85 -0.65 0.70 -1.70 2.35 -2.40 3.65 -0.65 1.30 -1.35 2.35 -1.55 2.35 -0.20 0 -0.45 0.70 -0.60 1.50 -0.20 0.90 -0.65 1.50 -1.10 1.50 -0.55 0 -0.75 0.50 -0.75 1.75 0 0.95 -0.15 1.75 -0.40 1.75 -0.20 0 -0.65 1.40 -1.05 3.15 -0.35 1.70 -0.90 4.30 -1.20 5.75 -0.45 1.95 -0.80 2.60 -1.45 2.60 -0.55 0 -0.90 -0.35 -0.90 -0.95z"/>
  <path d="M198.60 220.65 c0.15 -3.25 0.30 -3.90 1.05 -4.05 0.75 -0.15 0.85 0.30 0.85 3.85 0 3.75 -0.10 4.05 -1 4.05 -0.95 0 -1.05 -0.25 -0.90 -3.85z"/>
  <path d="M105.50 190.25 c0 -30.90 0 -31.25 1 -31.25 1 0 1 0.35 1 31.25 0 30.90 0 31.25 -1 31.25 -1 0 -1 -0.35 -1 -31.25z"/>
  <path d="M226.50 217.50 c0 -0.65 0.35 -1 1 -1 0.65 0 1 0.35 1 1 0 0.65 -0.35 1 -1 1 -0.65 0 -1 -0.35 -1 -1z"/>
  <path d="M393 206.40 c0 -0.75 0.40 -0.90 2.25 -0.90 1.65 0 2.25 0.20 2.25 0.75 0 0.40 -0.30 0.75 -0.60 0.80 -3.45 0.30 -3.90 0.20 -3.90 -0.65z"/>
  <path d="M230.80 189.70 c-0.45 -1.75 0.10 -3.35 1.05 -3 0.40 0.15 0.95 0.30 1.20 0.30 0.25 0 0.45 0.45 0.45 1 0 0.55 -0.20 1 -0.50 1 -0.25 0 -0.50 0.45 -0.50 1 0 1.45 -1.35 1.25 -1.70 -0.30z"/>
  <path d="M382.50 190.30 c0 -1.15 2.20 -2.15 5.55 -2.60 4.45 -0.55 5.55 -0.40 5.35 0.70 -0.10 0.55 -0.90 1 -2.40 1.25 -3.50 0.60 -8.50 1 -8.50 0.65z"/>
  <path d="M504.50 159 l0 -2.50 -198.50 0 c-176.10 0 -198.50 0.10 -198.50 0.75 0 0.40 -0.35 0.75 -0.75 0.75 -0.50 0 -0.75 -0.55 -0.75 -1.75 l0 -1.75 199.55 0 c172.25 0 199.60 0.10 200.25 0.70 0.45 0.45 0.70 1.75 0.70 3.50 0 2.45 -0.10 2.80 -1 2.80 -0.85 0 -1 -0.35 -1 -2.50z"/>
 </g>
 <g fill="#a9b6b8">
  <path d="M106.15 402.15 c-1 -0.40 -0.95 -183.65 0.05 -183.65 0.35 0 0.80 0.50 1 1.15 0.15 0.60 0.30 41.55 0.30 91 l0 89.85 198.50 0 198.50 0 0.05 -120.10 c0 -66.10 0.05 -120.95 0.10 -121.90 0.10 -1.40 -0.15 -1.85 -1 -2.25 -1.90 -0.80 -1.40 -1.85 0.75 -1.65 l1.85 0.15 0 123.75 0 123.75 -199.75 0.10 c-109.85 0.05 -200.05 -0.05 -200.35 -0.20z"/>
  <path d="M138.25 385.70 c-0.30 -0.10 -0.45 -1.65 -0.35 -3.70 0.15 -3.05 0.30 -3.50 1.15 -3.50 0.80 0 0.95 0.35 0.95 2.75 l0 2.75 13.25 0 13.25 0 0 -2 0 -2 -12.50 0 c-10.60 0 -12.50 -0.10 -12.50 -0.75 0 -1.15 2.60 -1.35 15.05 -1.15 l11.70 0.20 0.15 2.70 c0.10 1.45 0.05 3.20 -0.15 3.85 l-0.25 1.15 -14.65 -0.05 c-8 0 -14.80 -0.10 -15.10 -0.25z"/>
  <path d="M172.15 385.60 c-0.90 -0.60 -0.20 -3.10 0.90 -3.10 0.55 0 0.95 0.35 0.95 0.75 0 0.65 5.35 0.75 45.25 0.75 l45.25 0 0 -2 0 -2 -45.25 0 c-44.90 0 -45.25 0 -45.25 1 0 0.65 -0.35 1 -1 1 -0.80 0 -1 -0.35 -1 -1.70 0 -1.30 0.25 -1.75 1.15 -2 1.45 -0.40 89.75 -0.40 91.20 0 1.45 0.40 2.35 3.10 1.90 5.70 l-0.35 2 -46.55 0 c-25.65 0 -46.85 -0.20 -47.20 -0.40z"/>
  <path d="M270 385 c0 -0.95 0.30 -1 8.50 -1 l8.50 0 0 -2 0 -2 -8.50 0 c-6.90 0 -8.50 -0.15 -8.50 -0.70 0 -1.10 1.65 -1.30 10.35 -1.30 l8.10 0 0.30 1.65 c0.20 0.90 0.25 2.65 0.15 3.85 l-0.15 2.25 -9.35 0.15 c-9.15 0.10 -9.40 0.10 -9.40 -0.90z"/>
  <path d="M332 385 c0 -1 0.35 -1 54 -1 53.65 0 54 0 54 1 0 1 -0.35 1 -54 1 -53.65 0 -54 0 -54 -1z"/>
  <path d="M270.45 370.40 c0 -0.10 -0.15 -1.65 -0.30 -3.50 -0.30 -4.15 -0.75 -4 10.10 -3.80 l8 0.15 0.15 3.65 0.15 3.60 -9.05 0 c-4.95 0 -9 -0.05 -9.05 -0.10z"/>
  <path d="M270.10 351.90 l0.15 -3.65 9 0 9 0 0.15 3.65 0.15 3.60 -9.30 0 -9.30 0 0.15 -3.60z"/>
  <path d="M270.10 336.90 l0.15 -3.65 9.15 -0.15 9.10 -0.10 0 3.75 0 3.75 -9.25 0 -9.30 0 0.15 -3.60z"/>
  <path d="M138.45 324.90 c-0.25 -2.85 -0.10 -6.20 0.30 -6.50 0.30 -0.20 6.95 -0.40 14.90 -0.40 l14.35 0 0 3.75 0 3.75 -14.75 0 c-11.45 0 -14.75 -0.15 -14.80 -0.60z"/>
  <path d="M172.35 325.15 c-0.50 -0.50 -0.40 -4.40 0.15 -5.85 l0.50 -1.30 46.20 0 c41.65 0 46.20 0.10 46.50 0.80 0.15 0.45 0.30 2.10 0.30 3.75 l0 2.95 -46.65 0 c-25.70 0 -46.85 -0.15 -47 -0.35z"/>
  <path d="M270 322 c0 -3.20 0.10 -3.50 1.15 -3.75 0.60 -0.15 4.70 -0.20 9.10 -0.15 l8 0.15 0.35 2 c0.20 1.10 0.20 2.75 0.05 3.65 l-0.25 1.60 -9.20 0 -9.20 0 0 -3.50z"/>
  <path d="M198.50 289.40 c0 -1.95 0.60 -3.40 1.30 -3.40 0.50 0 0.70 0.65 0.70 2.25 0 1.90 -0.15 2.25 -1 2.25 -0.70 0 -1 -0.35 -1 -1.10z"/>
  <path d="M224.50 289.50 c0 -0.65 0.35 -1 1 -1 1 0 1 -0.35 1 -35 l0 -35 -13 0 -13 0 0 18 c0 15.05 -0.10 18 -0.70 18 -0.40 0 -0.80 -0.50 -1 -1.15 -0.40 -1.65 -0.25 -35.60 0.15 -36.30 0.25 -0.40 4.35 -0.55 14.85 -0.45 l14.45 0.15 0.15 36.90 0.10 36.85 -2 0 c-1.65 0 -2 -0.15 -2 -1z"/>
  <path d="M360.45 273.50 c-6.80 -6.70 -12.05 -18.35 -13.20 -29.35 -0.35 -2.95 -0.30 -3.15 0.70 -3.15 0.90 0 1.05 0.30 1.05 1.90 0 2.25 1.60 9 3 12.65 0.55 1.50 1 3.30 1 4.10 0 0.75 0.30 1.35 0.65 1.40 0.55 0 6.40 8.50 6.75 9.80 0.10 0.35 0.45 0.65 0.80 0.65 1.15 0 2.40 1.85 2.20 3.35 l-0.15 1.45 -2.80 -2.80z"/>
  <path d="M371.05 259.55 c-2.05 -2.55 -4.05 -6.65 -4.40 -8.95 -0.15 -1 -0.50 -2 -0.80 -2.15 -0.75 -0.50 -1.45 -8.40 -1.10 -12.45 0.70 -7.50 3.30 -14.65 6.65 -18.25 0.80 -0.80 1.55 -1.90 1.75 -2.35 0.20 -0.65 0.85 -0.90 2.15 -0.90 l1.85 0 -1.20 1.35 c-0.65 0.75 -1.30 1.50 -1.45 1.65 -0.75 0.70 -4.90 7.50 -5.65 9.25 -4.20 9.70 -2.45 23.15 4.05 31.25 0.95 1.25 2 2.55 2.25 2.90 0.35 0.45 0.10 0.60 -1.05 0.60 -1.15 0 -1.85 -0.45 -3.05 -1.95z"/>
  <path d="M347.20 232.35 c1.25 -9.80 6.50 -21.30 12.95 -28.15 3 -3.20 3.85 -3.80 3.85 -2.50 0 0.35 0.45 0.80 1 0.95 0.75 0.20 1 0.70 1 2.10 l0 1.90 -2.20 -0.25 c-2.10 -0.25 -2.30 -0.15 -4 1.90 -1 1.20 -2.65 3.60 -3.65 5.30 -1.05 1.75 -2 3.25 -2.15 3.40 -0.90 0.85 -4.45 12.25 -4.85 15.65 -0.25 1.90 -0.45 2.35 -1.30 2.35 -0.90 0 -0.95 -0.25 -0.65 -2.65z"/>
  <path d="M105.50 158.50 l0 -3.50 1.75 0 c0.95 0 1.75 0.25 1.75 0.50 0 0.30 -0.35 0.50 -0.75 0.50 -0.55 0 -0.75 0.55 -0.75 1.90 0 2.60 -0.50 4.10 -1.30 4.10 -0.55 0 -0.70 -0.85 -0.70 -3.50z"/>
 </g>
 <g fill="#f2c30f">
  <path d="M324.30 367.15 c-0.50 -1.75 -0.15 -11.65 0.45 -12.15 0.40 -0.35 27.95 -0.45 76.55 -0.40 l75.95 0.15 0.15 6.65 0.15 6.60 -76.50 0 c-72.40 0 -76.50 -0.05 -76.75 -0.85z"/>
  <path d="M190.40 290.65 c-3.45 -0.15 -3.90 -0.30 -3.90 -1.15 0 -0.85 0.45 -0.95 3.65 -1.10 l3.60 -0.15 0 -21.15 0 -21.15 1.15 0.15 1.15 0.15 0 21.90 c0 12.05 -0.15 22.10 -0.30 22.35 -0.20 0.30 -0.60 0.45 -0.90 0.40 -0.35 -0.05 -2.35 -0.20 -4.45 -0.25z"/>
  <path d="M166.40 289.65 c-0.30 -1.40 0.10 -2.65 0.90 -2.65 0.40 0 0.70 0.35 0.70 0.75 0 0.65 1.35 0.75 9 0.75 8.65 0 9 0.05 9 1 0 0.95 -0.35 1 -9.70 1 -8.80 0 -9.70 -0.10 -9.90 -0.85z"/>
  <path d="M166.35 248.45 c-0.65 -2.45 -0.60 -2.45 12.95 -2.45 12.35 0 12.70 0.05 12.70 1 0 0.95 -0.35 1 -11.75 1 -10 0 -11.80 0.10 -12.05 0.75 -0.45 1.10 -1.55 0.90 -1.85 -0.30z"/>
  <path d="M372.60 216 c-0.60 -0.80 -1.10 -2.15 -1.10 -3 0 -1.35 0.15 -1.50 1.70 -1.50 0.90 0 1.95 0.35 2.30 0.75 0.35 0.40 1.15 0.75 1.80 0.75 0.90 0 1.20 -0.25 1.20 -1.15 0 -1.25 1.65 -2.35 3.50 -2.35 0.55 0 1 -0.30 1 -0.65 0 -0.90 3.15 -2.35 5 -2.35 1 0 1.50 -0.25 1.50 -0.75 0 -0.45 0.45 -0.75 1.20 -0.75 2.15 0 4.30 0.60 4.30 1.25 0 0.60 -3.05 1.75 -4.80 1.75 -0.55 0.05 -1.85 0.45 -2.95 1 -1.10 0.55 -2.15 0.95 -2.30 1 -1.05 0.05 -10.45 6.45 -10.45 7.10 0 0.85 -0.85 0.35 -1.90 -1.10z"/>
  <path d="M361 204.10 c0 -0.30 0.35 -0.65 0.80 -0.80 0.45 -0.20 0.70 -0.45 0.50 -0.65 -0.40 -0.45 3.70 -4.65 4.55 -4.65 0.30 0 0.80 -0.30 1 -0.65 1.05 -1.75 13 -7.70 16.30 -8.15 2.35 -0.35 2.45 -0.30 2.25 0.80 -0.10 0.95 -0.75 1.40 -3.65 2.30 -1.90 0.65 -4.25 1.15 -5.10 1.15 -1.10 0.05 -1.65 0.30 -1.65 0.80 0 0.40 -0.35 0.75 -0.75 0.75 -0.40 0 -0.75 0.25 -0.75 0.50 0 0.30 -0.45 0.50 -1 0.50 -0.55 0 -1 0.35 -1 0.75 0 0.45 -0.60 1 -1.35 1.30 -0.80 0.30 -2.65 1.80 -4.20 3.35 -2.05 2.05 -3.30 2.90 -4.40 3 -0.85 0.10 -1.55 -0.05 -1.55 -0.30z"/>
  <path d="M387 189.25 c0 -0.70 0.60 -0.95 3.65 -1.40 1.15 -0.20 1.35 -0.05 1.35 0.95 0 1.10 -0.20 1.20 -2.50 1.20 -1.85 0 -2.50 -0.20 -2.50 -0.75z"/>
  <path d="M393.50 188.30 c0 -0.40 0.60 -0.85 1.30 -1 1.80 -0.45 4.20 0.10 4.20 1 0 0.50 -0.70 0.70 -2.75 0.70 -2 0 -2.75 -0.20 -2.75 -0.70z"/>
 </g>
 <g fill="#57d68d">
  <path d="M324.65 385.10 c-0.90 -0.90 -0.90 -10.55 0 -11.75 0.55 -0.80 4.50 -0.85 58.10 -0.75 l57.50 0.15 0 6.40 0 6.35 -57.45 0.15 c-47.10 0.10 -57.60 0 -58.15 -0.55z"/>
  <path d="M372 214.25 c0 -1.65 0.10 -1.75 1.75 -1.75 1.55 0 1.75 0.15 1.75 1.25 0 0.70 -0.25 1.25 -0.55 1.25 -0.25 0 -0.35 0.25 -0.20 0.50 0.20 0.30 -0.35 0.50 -1.20 0.50 -1.45 0 -1.55 -0.15 -1.55 -1.75z"/>
  <path d="M361.75 203.40 c0.55 -0.30 1.25 -0.95 1.60 -1.35 0.55 -0.70 0.60 -0.60 0.65 0.60 0 1.20 -0.20 1.35 -1.60 1.35 -1.50 -0.05 -1.55 -0.10 -0.65 -0.60z"/>
 </g>
 <g fill="#5698c8">
  <path d="M198.90 290.15 c-0.05 -0.20 -0.05 -16.80 0.10 -36.80 l0.25 -36.40 14.35 -0.10 14.40 -0.10 0.10 36.40 c0.10 23.85 0 36.60 -0.35 36.85 -0.65 0.55 -28.60 0.65 -28.85 0.15z"/>
  <path d="M360.35 273.10 c-5.70 -6.05 -9.60 -13.50 -11.95 -23 -1.55 -6.35 -1.55 -17.20 0 -23.05 2.95 -10.80 7.35 -18.35 14.45 -24.65 0.95 -0.85 1.15 -0.70 7.30 5.55 6.15 6.20 7.45 7.95 5.35 7.30 -0.70 -0.25 -0.90 -0.15 -0.70 0.40 0.10 0.35 -0.75 2 -1.95 3.65 -4.55 6.10 -6.45 11.90 -6.45 20 -0.05 4.45 0.15 5.65 1.60 9.70 1.85 5.40 3.20 7.70 6.60 11.30 l2.45 2.60 -6.60 6.55 c-3.60 3.60 -6.75 6.55 -6.95 6.55 -0.20 0 -1.60 -1.30 -3.15 -2.90z"/>
 </g>
 <g fill="#f39b10">
  <path d="M166.75 290.10 c-0.45 -0.45 -0.25 -43.05 0.20 -43.30 0.25 -0.15 6.70 -0.35 14.35 -0.40 l13.95 -0.15 0.15 21.50 c0.05 14.60 -0.05 21.60 -0.40 21.95 -0.55 0.55 -27.70 0.90 -28.25 0.40z"/>
  <path d="M374.85 215.15 c-0.45 -0.10 -0.75 -0.40 -0.60 -0.65 0.15 -0.20 -0.15 -0.70 -0.60 -1.05 -0.60 -0.50 -0.70 -0.50 -0.45 -0.05 0.80 1.30 -0.20 0.40 -5.45 -4.95 l-5.40 -5.50 3.30 -3.25 c1.80 -1.75 3.65 -3.20 4.10 -3.20 0.40 0 0.90 -0.30 1.05 -0.70 0.15 -0.40 1.15 -1.20 2.20 -1.75 1.05 -0.55 2.35 -1.20 2.85 -1.50 0.50 -0.25 2.25 -0.90 3.90 -1.35 1.65 -0.45 3.95 -1.30 5.15 -1.80 2.40 -1.05 4.25 -1.35 10.85 -1.70 l4.50 -0.25 0.05 8.15 c0 4.50 0.20 8.85 0.40 9.75 l0.40 1.60 -4.65 0.20 c-5.95 0.30 -8.85 0.90 -11 2.25 -0.95 0.60 -2.45 1.40 -3.30 1.80 -0.90 0.40 -2.25 1.30 -3 2 -0.75 0.70 -1.65 1.30 -2 1.30 -0.35 0 -0.65 0.25 -0.65 0.50 0 0.50 -0.15 0.55 -1.65 0.15z"/>
 </g>
 <g fill="#7d8d8e">
  <path d="M106 400.75 c0 -0.95 0.25 -1.75 0.50 -1.75 0.30 0 0.50 0.35 0.50 0.75 0 0.70 1.50 1.30 3 1.15 1.65 -0.15 2.50 0.15 2.50 0.85 0 0.60 -0.70 0.75 -3.25 0.75 l-3.25 0 0 -1.75z"/>
  <path d="M503 401.75 c0 -0.40 0.35 -0.75 0.80 -0.75 0.45 0 0.90 -0.45 1.05 -1 0.45 -1.75 1.65 -1.20 1.65 0.75 0 1.65 -0.10 1.75 -1.75 1.75 -1.20 0 -1.75 -0.25 -1.75 -0.75z"/>
  <path d="M138.50 382 l0 -3.50 14.75 0 14.75 0 0 3.50 0 3.50 -14.75 0 -14.75 0 0 -3.50z"/>
  <path d="M172.25 384 c-0.20 -0.85 -0.20 -2.40 0 -3.50 l0.35 -2 46.70 0 46.70 0 0 3.50 0 3.50 -46.70 0 -46.70 0 -0.35 -1.50z"/>
  <path d="M270 382 l0 -3.50 9.25 0 9.25 0 0 3.50 0 3.50 -9.25 0 -9.25 0 0 -3.50z"/>
  <path d="M362.70 275.65 c-0.50 -0.80 0.40 -1.85 6.15 -7.60 6.15 -6.10 6.80 -6.60 7.50 -5.90 0.65 0.65 0.70 0.95 0.15 1.55 -0.35 0.45 -1.05 0.80 -1.55 0.80 -0.55 0 -0.95 0.35 -0.95 0.80 0 1.10 -4 5.20 -5.10 5.20 -0.55 0 -0.90 0.35 -0.90 1 0 0.55 -0.30 1 -0.70 1 -0.35 0 -0.80 0.45 -0.95 1 -0.15 0.60 -0.70 1 -1.30 1 -0.70 0 -1.05 0.30 -1.05 1 0 1.25 -0.55 1.30 -1.30 0.15z"/>
  <path d="M370 210.65 l-3.25 -3.40 3.40 3.25 c3.10 3 3.60 3.50 3.20 3.50 -0.05 0 -1.60 -1.50 -3.35 -3.35z"/>
  <path d="M105.50 156.25 c0 -1.65 0.10 -1.75 1.75 -1.75 1.95 0 2.50 1.20 0.75 1.65 -0.55 0.15 -1 0.60 -1 1.05 0 0.45 -0.35 0.80 -0.75 0.80 -0.50 0 -0.75 -0.55 -0.75 -1.75z"/>
  <path d="M505 157.20 c0 -0.45 -0.45 -0.90 -1 -1.05 -1.75 -0.45 -1.20 -1.65 0.75 -1.65 1.65 0 1.75 0.10 1.75 1.75 0 1.20 -0.25 1.75 -0.75 1.75 -0.40 0 -0.75 -0.35 -0.75 -0.80z"/>
 </g>
 <g fill="#cd6155">
  <path d="M325.10 349.60 c-0.45 -0.30 -0.60 -2 -0.50 -6.50 0.10 -3.35 0.30 -6.10 0.55 -6.10 0.20 0 18 0 39.60 0 l39.25 0 0 6.20 c0 5.20 -0.15 6.25 -0.80 6.50 -1.20 0.45 -77.35 0.35 -78.10 -0.10z"/>
  <path d="M231.35 290.15 c-0.20 -0.15 -0.35 -23.30 -0.35 -51.45 0 -46.15 0.10 -51.10 0.80 -51.40 1.05 -0.40 25.15 -0.40 27.15 0 l1.55 0.35 0 51.40 0 51.45 -14.40 0 c-7.95 0 -14.60 -0.15 -14.75 -0.35z"/>
  <path d="M389.75 289.70 c-9.45 -2.20 -16.05 -5.10 -22.25 -9.75 -6.20 -4.70 -6.30 -4.15 1.55 -11.85 l6.70 -6.55 1.25 1.15 c2.55 2.30 7.35 5.05 11.20 6.40 7.40 2.65 17.10 2.30 23.35 -0.90 8.35 -4.20 12.70 -8.75 16.75 -17.50 l1.90 -3.95 0 -7.25 c0.05 -6.75 -0.05 -7.50 -1.35 -11.15 -1.60 -4.40 -4.35 -8.80 -7.50 -11.95 -2.15 -2.20 -5.55 -4.90 -6.10 -4.90 -0.20 0 -1 -0.45 -1.80 -1 -2.10 -1.55 -6.70 -2.95 -10.50 -3.30 -4.45 -0.45 -4.50 -0.60 -4.35 -11.20 l0.15 -8.25 2.50 -0.15 c2.90 -0.20 7.80 0.60 12 1.90 3.75 1.15 10.30 3.85 10.70 4.35 0.15 0.20 2 1.55 4.05 2.90 8.45 5.65 16.40 16.25 19.45 25.80 3.95 12.55 3.15 26.60 -2.30 37.90 -5.60 11.70 -13.60 19.70 -25.30 25.25 -6.65 3.15 -10.40 3.90 -20.35 4.10 -4.80 0.05 -9.20 0.05 -9.75 -0.10z"/>
 </g>
 <g fill="#407396">
  <path d="M266.90 501.75 c-0.10 -0.10 -5.20 -0.30 -11.40 -0.45 -37.35 -0.95 -82.20 -4.45 -92.25 -7.25 -7.15 -1.95 -9.25 -3 -9.25 -4.55 0 -2.55 19.15 -5.80 47.25 -8.05 3.30 -0.25 8.25 -0.65 11 -0.95 2.75 -0.25 7.50 -0.45 10.55 -0.50 5.25 0 5.60 -0.05 6.70 -1.25 1.15 -1.25 1.30 -1.25 8.95 -1.25 l7.80 0 3.70 -13.35 c2.05 -7.40 4 -14.40 4.40 -15.65 0.35 -1.25 2.10 -7.55 3.90 -14 1.80 -6.45 3.60 -12.90 4 -14.30 0.40 -1.40 0.75 -2.80 0.75 -3.10 0 -0.45 -18.30 -0.60 -74.70 -0.60 -81.40 0 -77.75 0.10 -85.10 -2.80 -3.95 -1.60 -8.20 -5.55 -10.20 -9.50 l-1.25 -2.45 0 -123 c0 -121.50 0 -123.05 1 -125.70 1.90 -5.10 8.85 -10.05 16.60 -11.80 3.05 -0.70 24.45 -0.75 198.40 -0.65 l195 0.15 3.45 1.40 c1.95 0.75 4.40 1.90 5.55 2.55 2.75 1.65 6.10 5.30 7.40 8.20 l1.10 2.35 0.15 121.50 c0.10 91.65 0 122.15 -0.45 124.25 -0.60 2.85 -2.20 5.80 -4.40 8.15 -2.50 2.70 -9.25 5.95 -13.70 6.60 -2.10 0.30 -2.35 0.25 -2.35 -0.55 0 -0.75 0.60 -1.10 2.50 -1.55 7.15 -1.70 13.45 -6.55 15.45 -11.90 l1.05 -2.80 0 -120.85 0 -120.90 -1.30 -2.60 c-2.55 -5.10 -9.95 -10.45 -16.15 -11.60 -1.75 -0.35 -68.30 -0.50 -195.25 -0.50 l-192.55 0 -3.75 1.05 c-2.05 0.55 -4.75 1.60 -6.05 2.25 -3.75 2.05 -8.30 6.95 -9.35 10.15 -0.45 1.25 -0.60 32.25 -0.60 122.80 l0 121.10 1.50 2.95 c0.80 1.60 1.50 3.25 1.50 3.60 0 0.30 0.20 0.60 0.45 0.60 0.30 0 2.30 1.20 4.50 2.70 2.90 1.90 5.15 3 7.95 3.75 3.90 1.05 4.10 1.05 79.75 1.05 l75.85 0 0 2 c0 1.10 -0.45 3.65 -1.05 5.65 -0.55 1.95 -1.65 5.85 -2.45 8.60 -9.10 32.30 -13 46.40 -13 47.30 0 1.30 -1 1.45 -8.55 1.45 -6.30 0 -7.05 0.10 -7.95 1 -1.50 1.50 -1.40 5.75 0.15 7.05 1.05 0.90 3.45 0.90 74.20 0.95 82.90 0 74.65 0.50 74.65 -4.50 0 -4.30 -0.45 -4.50 -9.55 -4.50 l-7.30 0 -2.10 -7.60 c-1.20 -4.20 -3.35 -11.90 -4.80 -17.15 -8.80 -31.20 -10.25 -36.70 -10.25 -38.40 l0 -1.85 75.75 0 c64.15 0 75.75 0.10 75.75 0.70 0 0.35 -0.50 0.80 -1.10 1 -0.65 0.15 -34.30 0.30 -74.85 0.30 l-73.65 0 0.20 1.15 c0.35 1.45 6.50 23.50 8.60 30.85 0.95 3.15 2.55 8.90 3.55 12.75 1.05 3.85 2.40 8.65 3.05 10.65 0.65 2 1.20 4.05 1.20 4.60 0 0.95 0.35 1 7.75 1 7.30 0 7.80 0.05 8.85 1.10 1 1 1.75 1.10 10.60 1.45 5.25 0.20 10.55 0.60 11.80 0.90 1.25 0.30 4.05 0.55 6.25 0.55 2.20 0 5.80 0.20 8 0.50 2.20 0.25 7.05 0.85 10.75 1.30 16.15 1.95 24.05 3.35 27.10 4.80 1.35 0.60 2.05 2.90 0.95 2.90 -0.25 0 -0.80 0.30 -1.15 0.65 -1.55 1.60 -18.60 4.85 -28.90 5.60 -2.35 0.15 -6.25 0.50 -8.75 0.75 -6 0.65 -18.35 1.45 -27 1.75 -3.85 0.15 -10.35 0.50 -14.50 0.75 -14.75 1 -39.55 1.50 -74.60 1.45 -19.55 -0.05 -35.65 -0.10 -35.75 -0.20z"/>
  <path d="M105.50 400.75 c0 -1.95 1.20 -2.50 1.65 -0.75 0.15 0.55 0.60 1 1.05 1 0.45 0 0.80 0.35 0.80 0.75 0 0.50 -0.55 0.75 -1.75 0.75 -1.65 0 -1.75 -0.10 -1.75 -1.75z"/>
 </g>
 <g fill="#010001">
  <path d="M230.65 489.05 c-1 -0.85 -1.15 -1.40 -1.15 -5 0 -5.95 0.15 -6.05 8.95 -6.05 7.55 0 8.55 -0.15 8.55 -1.45 0 -0.90 3.90 -15 13 -47.30 0.80 -2.75 1.90 -6.65 2.45 -8.60 0.60 -2 1.05 -3.85 1.05 -4.15 0 -0.35 -25 -0.50 -75.90 -0.50 -75.20 0 -75.90 0 -79.60 -1.05 -6.60 -1.80 -12.10 -5.85 -14.45 -10.55 l-1.55 -3.05 0 -122.60 c0 -91.70 0.15 -123.05 0.60 -124.30 1.05 -3.20 5.60 -8.10 9.35 -10.15 1.30 -0.65 4 -1.70 6.05 -2.25 l3.75 -1.05 194.05 0 c127.95 0 195 0.15 196.75 0.50 6.20 1.15 13.60 6.50 16.15 11.60 l1.30 2.60 0 122.40 0 122.35 -1.05 2.85 c-2 5.30 -8.20 10 -15.70 11.95 -2.60 0.65 -12.15 0.75 -78.85 0.75 -41.75 0 -75.90 0.15 -75.90 0.35 0 0.35 3 11.05 10.25 36.90 1.45 5.25 3.60 12.95 4.80 17.15 l2.10 7.60 7.30 0 c9.60 0 9.55 0 9.55 6 0 3.35 -0.20 4.60 -0.80 5.20 -0.70 0.70 -8.20 0.80 -75.35 0.80 -72.20 -0.05 -74.65 -0.05 -75.70 -0.95z m274.35 -210.55 l0 -122.50 -199 0 -199 0 0 122.50 0 122.50 199 0 199 0 0 -122.50z"/>
 </g>
</svg>